<mxfile host="app.diagrams.net" modified="2024-06-01T09:08:18.940Z" agent="Mozilla/5.0 (Windows NT 10.0; Win64; x64; rv:126.0) Gecko/20100101 Firefox/126.0" etag="MY4xZSJtEzVgVplPHPWA" version="24.4.13" type="device">
  <diagram name="Seite-1" id="jFqD6BZY24gnCurI2bDM">
    <mxGraphModel dx="1500" dy="810" grid="1" gridSize="10" guides="1" tooltips="1" connect="1" arrows="1" fold="1" page="1" pageScale="1" pageWidth="827" pageHeight="1169" math="0" shadow="0">
      <root>
        <mxCell id="0" />
        <mxCell id="1" parent="0" />
        <mxCell id="djXJ9z6DGwYOmn8gcCX3-41" value="&lt;span&gt;&lt;span dir=&quot;ltr&quot; class=&quot;ui-provider a b c d e f g h i j k l m n o p q r s t u v w x y z ab ac ae af ag ah ai aj ak&quot;&gt;Tierinformationssystem&lt;/span&gt;&lt;/span&gt;" style="rounded=0;whiteSpace=wrap;html=1;verticalAlign=top;" vertex="1" parent="1">
          <mxGeometry x="416" y="80" width="364" height="400" as="geometry" />
        </mxCell>
        <mxCell id="djXJ9z6DGwYOmn8gcCX3-2" value="neugeborene&lt;br&gt; Tiere erfassen" style="ellipse;whiteSpace=wrap;html=1;fontStyle=1" vertex="1" parent="1">
          <mxGeometry x="160" y="365.5" width="110" height="70" as="geometry" />
        </mxCell>
        <mxCell id="djXJ9z6DGwYOmn8gcCX3-3" value="Futter&lt;br&gt;beschaffen" style="ellipse;whiteSpace=wrap;html=1;fontStyle=1;shadow=0;strokeColor=#CCCCCC;fontColor=#CCCCCC;" vertex="1" parent="1">
          <mxGeometry x="170" y="285.5" width="110" height="70" as="geometry" />
        </mxCell>
        <mxCell id="djXJ9z6DGwYOmn8gcCX3-6" value="Gehege&lt;br&gt;s채ubern" style="ellipse;whiteSpace=wrap;html=1;fontStyle=1;shadow=0;strokeColor=#CCCCCC;fontColor=#CCCCCC;" vertex="1" parent="1">
          <mxGeometry x="170" y="204.5" width="110" height="70" as="geometry" />
        </mxCell>
        <mxCell id="djXJ9z6DGwYOmn8gcCX3-7" value="Tiere &lt;br&gt;f체ttern" style="ellipse;whiteSpace=wrap;html=1;fontStyle=1;shadow=0;strokeColor=#CCCCCC;fontColor=#CCCCCC;" vertex="1" parent="1">
          <mxGeometry x="160" y="124.5" width="110" height="70" as="geometry" />
        </mxCell>
        <mxCell id="djXJ9z6DGwYOmn8gcCX3-8" value="Tierpfleger" style="shape=umlActor;verticalLabelPosition=bottom;verticalAlign=top;html=1;outlineConnect=0;" vertex="1" parent="1">
          <mxGeometry x="40" y="240.5" width="30" height="60" as="geometry" />
        </mxCell>
        <mxCell id="djXJ9z6DGwYOmn8gcCX3-11" value="" style="endArrow=none;html=1;rounded=0;" edge="1" parent="1" target="djXJ9z6DGwYOmn8gcCX3-6">
          <mxGeometry width="50" height="50" relative="1" as="geometry">
            <mxPoint x="90" y="270.5" as="sourcePoint" />
            <mxPoint x="470" y="200.5" as="targetPoint" />
          </mxGeometry>
        </mxCell>
        <mxCell id="djXJ9z6DGwYOmn8gcCX3-12" value="" style="endArrow=none;html=1;rounded=0;" edge="1" parent="1" target="djXJ9z6DGwYOmn8gcCX3-7">
          <mxGeometry width="50" height="50" relative="1" as="geometry">
            <mxPoint x="90" y="260.5" as="sourcePoint" />
            <mxPoint x="470" y="200.5" as="targetPoint" />
          </mxGeometry>
        </mxCell>
        <mxCell id="djXJ9z6DGwYOmn8gcCX3-14" value="" style="endArrow=none;html=1;rounded=0;" edge="1" parent="1" target="djXJ9z6DGwYOmn8gcCX3-2">
          <mxGeometry width="50" height="50" relative="1" as="geometry">
            <mxPoint x="90" y="300.5" as="sourcePoint" />
            <mxPoint x="470" y="200.5" as="targetPoint" />
          </mxGeometry>
        </mxCell>
        <mxCell id="djXJ9z6DGwYOmn8gcCX3-15" value="" style="endArrow=none;html=1;rounded=0;" edge="1" parent="1" target="djXJ9z6DGwYOmn8gcCX3-3">
          <mxGeometry width="50" height="50" relative="1" as="geometry">
            <mxPoint x="90" y="290.5" as="sourcePoint" />
            <mxPoint x="470" y="200.5" as="targetPoint" />
          </mxGeometry>
        </mxCell>
        <mxCell id="djXJ9z6DGwYOmn8gcCX3-18" value="" style="endArrow=none;html=1;rounded=0;strokeColor=#006666;strokeWidth=2;" edge="1" parent="1">
          <mxGeometry width="50" height="50" relative="1" as="geometry">
            <mxPoint x="320" y="500" as="sourcePoint" />
            <mxPoint x="320" y="60" as="targetPoint" />
          </mxGeometry>
        </mxCell>
        <mxCell id="djXJ9z6DGwYOmn8gcCX3-19" value="Name und&lt;br&gt;Geburtsdatum&lt;br&gt;eingeben" style="ellipse;whiteSpace=wrap;html=1;fontStyle=1" vertex="1" parent="1">
          <mxGeometry x="440" y="119" width="110" height="70" as="geometry" />
        </mxCell>
        <mxCell id="djXJ9z6DGwYOmn8gcCX3-20" value="Tierart &lt;br&gt;ausw채hlen" style="ellipse;whiteSpace=wrap;html=1;fontStyle=1" vertex="1" parent="1">
          <mxGeometry x="486" y="390" width="110" height="70" as="geometry" />
        </mxCell>
        <mxCell id="djXJ9z6DGwYOmn8gcCX3-23" value="neugeborene&lt;br&gt; Tiere erfassen" style="ellipse;whiteSpace=wrap;html=1;fontStyle=1" vertex="1" parent="1">
          <mxGeometry x="452" y="241" width="110" height="70" as="geometry" />
        </mxCell>
        <mxCell id="djXJ9z6DGwYOmn8gcCX3-24" value="Tierpfleger" style="shape=umlActor;verticalLabelPosition=bottom;verticalAlign=top;html=1;outlineConnect=0;" vertex="1" parent="1">
          <mxGeometry x="360" y="189" width="30" height="60" as="geometry" />
        </mxCell>
        <mxCell id="djXJ9z6DGwYOmn8gcCX3-27" value="" style="endArrow=none;html=1;rounded=0;" edge="1" parent="1" target="djXJ9z6DGwYOmn8gcCX3-23" source="djXJ9z6DGwYOmn8gcCX3-24">
          <mxGeometry width="50" height="50" relative="1" as="geometry">
            <mxPoint x="392" y="275" as="sourcePoint" />
            <mxPoint x="772" y="205" as="targetPoint" />
          </mxGeometry>
        </mxCell>
        <mxCell id="djXJ9z6DGwYOmn8gcCX3-31" value="Beschreibung&lt;br&gt;erfassen" style="ellipse;whiteSpace=wrap;html=1;fontStyle=1" vertex="1" parent="1">
          <mxGeometry x="596" y="110" width="110" height="70" as="geometry" />
        </mxCell>
        <mxCell id="djXJ9z6DGwYOmn8gcCX3-32" value="Eltern &lt;br&gt;ausw채hlen" style="ellipse;whiteSpace=wrap;html=1;fontStyle=1" vertex="1" parent="1">
          <mxGeometry x="646" y="220" width="110" height="70" as="geometry" />
        </mxCell>
        <mxCell id="djXJ9z6DGwYOmn8gcCX3-33" value="&amp;lt;&amp;lt;include&amp;gt;&amp;gt;" style="html=1;verticalAlign=bottom;labelBackgroundColor=none;endArrow=open;endFill=0;dashed=1;rounded=0;" edge="1" parent="1" source="djXJ9z6DGwYOmn8gcCX3-23" target="djXJ9z6DGwYOmn8gcCX3-31">
          <mxGeometry width="160" relative="1" as="geometry">
            <mxPoint x="552" y="371" as="sourcePoint" />
            <mxPoint x="712" y="371" as="targetPoint" />
          </mxGeometry>
        </mxCell>
        <mxCell id="djXJ9z6DGwYOmn8gcCX3-34" value="&amp;lt;&amp;lt;include&amp;gt;&amp;gt;" style="html=1;verticalAlign=bottom;labelBackgroundColor=none;endArrow=open;endFill=0;dashed=1;rounded=0;" edge="1" parent="1" source="djXJ9z6DGwYOmn8gcCX3-23" target="djXJ9z6DGwYOmn8gcCX3-32">
          <mxGeometry width="160" relative="1" as="geometry">
            <mxPoint x="552" y="371" as="sourcePoint" />
            <mxPoint x="712" y="371" as="targetPoint" />
          </mxGeometry>
        </mxCell>
        <mxCell id="djXJ9z6DGwYOmn8gcCX3-37" value="Gehege&lt;br&gt;zuordnen" style="ellipse;whiteSpace=wrap;html=1;fontStyle=1" vertex="1" parent="1">
          <mxGeometry x="636" y="340" width="110" height="70" as="geometry" />
        </mxCell>
        <mxCell id="djXJ9z6DGwYOmn8gcCX3-38" value="&amp;lt;&amp;lt;include&amp;gt;&amp;gt;" style="html=1;verticalAlign=bottom;labelBackgroundColor=none;endArrow=open;endFill=0;dashed=1;rounded=0;" edge="1" parent="1" source="djXJ9z6DGwYOmn8gcCX3-23" target="djXJ9z6DGwYOmn8gcCX3-19">
          <mxGeometry width="160" relative="1" as="geometry">
            <mxPoint x="548" y="257" as="sourcePoint" />
            <mxPoint x="656" y="154" as="targetPoint" />
          </mxGeometry>
        </mxCell>
        <mxCell id="djXJ9z6DGwYOmn8gcCX3-39" value="&amp;lt;&amp;lt;include&amp;gt;&amp;gt;" style="html=1;verticalAlign=bottom;labelBackgroundColor=none;endArrow=open;endFill=0;dashed=1;rounded=0;" edge="1" parent="1" source="djXJ9z6DGwYOmn8gcCX3-23" target="djXJ9z6DGwYOmn8gcCX3-20">
          <mxGeometry width="160" relative="1" as="geometry">
            <mxPoint x="558" y="267" as="sourcePoint" />
            <mxPoint x="666" y="164" as="targetPoint" />
          </mxGeometry>
        </mxCell>
        <mxCell id="djXJ9z6DGwYOmn8gcCX3-40" value="&amp;lt;&amp;lt;include&amp;gt;&amp;gt;" style="html=1;verticalAlign=bottom;labelBackgroundColor=none;endArrow=open;endFill=0;dashed=1;rounded=0;" edge="1" parent="1" source="djXJ9z6DGwYOmn8gcCX3-23" target="djXJ9z6DGwYOmn8gcCX3-37">
          <mxGeometry width="160" relative="1" as="geometry">
            <mxPoint x="568" y="277" as="sourcePoint" />
            <mxPoint x="676" y="174" as="targetPoint" />
          </mxGeometry>
        </mxCell>
      </root>
    </mxGraphModel>
  </diagram>
</mxfile>
